<?xml version="1.0" standalone="no"?>
<svg xmlns:xlink="http://www.w3.org/1999/xlink" id="wave" style="transform:rotate(0deg); transition: 0.3s" viewBox="0 0 1440 100" version="1.1" xmlns="http://www.w3.org/2000/svg"><defs><linearGradient id="sw-gradient-0" x1="0" x2="0" y1="1" y2="0"><stop stop-color="rgba(255, 255, 255, 1)" offset="0%"/><stop stop-color="rgba(182.378, 218.838, 234.829, 1)" offset="100%"/></linearGradient></defs><path style="transform:translate(0, 0px); opacity:1" fill="url(#sw-gradient-0)" d="M0,70L60,71.7C120,73,240,77,360,75C480,73,600,67,720,61.7C840,57,960,53,1080,45C1200,37,1320,23,1440,30C1560,37,1680,63,1800,61.7C1920,60,2040,30,2160,20C2280,10,2400,20,2520,30C2640,40,2760,50,2880,55C3000,60,3120,60,3240,56.7C3360,53,3480,47,3600,51.7C3720,57,3840,73,3960,80C4080,87,4200,83,4320,80C4440,77,4560,73,4680,60C4800,47,4920,23,5040,13.3C5160,3,5280,7,5400,8.3C5520,10,5640,10,5760,21.7C5880,33,6000,57,6120,70C6240,83,6360,87,6480,86.7C6600,87,6720,83,6840,81.7C6960,80,7080,80,7200,81.7C7320,83,7440,87,7560,80C7680,73,7800,57,7920,46.7C8040,37,8160,33,8280,41.7C8400,50,8520,70,8580,80L8640,90L8640,100L8580,100C8520,100,8400,100,8280,100C8160,100,8040,100,7920,100C7800,100,7680,100,7560,100C7440,100,7320,100,7200,100C7080,100,6960,100,6840,100C6720,100,6600,100,6480,100C6360,100,6240,100,6120,100C6000,100,5880,100,5760,100C5640,100,5520,100,5400,100C5280,100,5160,100,5040,100C4920,100,4800,100,4680,100C4560,100,4440,100,4320,100C4200,100,4080,100,3960,100C3840,100,3720,100,3600,100C3480,100,3360,100,3240,100C3120,100,3000,100,2880,100C2760,100,2640,100,2520,100C2400,100,2280,100,2160,100C2040,100,1920,100,1800,100C1680,100,1560,100,1440,100C1320,100,1200,100,1080,100C960,100,840,100,720,100C600,100,480,100,360,100C240,100,120,100,60,100L0,100Z"/></svg>